<svg id="Capa_1" enable-background="new 0 0 504.297 504.297" height="512" viewBox="0 0 504.297 504.297" width="512" xmlns="http://www.w3.org/2000/svg"><g><g id="Page-1_12_"><g id="_x30_13---Email"><path id="Shape_57_" d="m71.857 504.297h360.582c25.737-.194 46.462-21.182 46.332-46.919v-250.293c.13-25.738-20.595-46.725-46.332-46.919h-38.677c6.758-54.759-18.66-108.507-65.273-138.026s-106.068-29.519-152.682 0-72.031 83.267-65.273 138.026h-38.677c-25.737.194-46.462 21.182-46.332 46.919v250.292c-.13 25.738 20.595 46.726 46.332 46.92zm-29.545-46.92v-250.292c.011-5.638 1.595-11.161 4.574-15.948l159.836 141.094-159.835 141.085c-2.978-4.784-4.562-10.304-4.575-15.939zm29.545 30.133c-4.302-.021-8.544-1.008-12.414-2.887l159.971-141.186 8.511 7.512c13.875 12.171 34.622 12.171 48.497 0l8.494-7.504 159.937 141.178c-3.87 1.88-8.112 2.866-12.414 2.887zm385.553-296.364c2.978 4.784 4.562 10.304 4.574 15.939v250.292c-.011 5.638-1.595 11.161-4.574 15.948l-159.836-141.094zm-205.262-173.669c69.534 0 125.902 56.368 125.902 125.902s-56.368 125.901-125.902 125.901-125.902-56.368-125.902-125.902c.079-69.5 56.401-125.822 125.902-125.901zm-138.491 159.475c15.432 64.002 72.698 109.101 138.534 109.101s123.102-45.099 138.534-109.101h41.715c4.302.021 8.544 1.008 12.414 2.887l-179.562 158.511c-7.514 6.598-18.757 6.598-26.271 0l-179.578-158.51c3.87-1.88 8.112-2.866 12.414-2.887h41.8z"/><path id="Shape_56_" d="m252.148 244.1c21.569.078 42.584-6.833 59.896-19.699 3.722-2.763 4.5-8.02 1.737-11.742s-8.02-4.5-11.742-1.737c-14.421 10.714-31.926 16.465-49.891 16.392-33.948 0-64.554-20.45-77.545-51.814s-5.81-67.466 18.195-91.471 60.107-31.186 91.471-18.195 51.814 43.597 51.814 77.545v16.787c0 9.271-7.516 16.787-16.787 16.787s-16.787-7.516-16.787-16.787v-58.754c0-4.636-3.758-8.393-8.393-8.393s-8.393 3.758-8.393 8.393v4.532c-15.206-13.676-37.172-16.797-55.586-7.9s-29.619 28.047-28.354 48.459 14.748 38.032 34.119 44.588 40.784.747 54.186-14.701c7.363 13.411 22.885 20.119 37.698 16.291s25.142-17.216 25.085-32.515v-16.787c0-55.627-45.094-100.721-100.721-100.721s-100.723 45.094-100.723 100.721 45.094 100.721 100.721 100.721zm0-67.148c-18.542 0-33.574-15.031-33.574-33.574s15.031-33.574 33.574-33.574 33.574 15.031 33.574 33.574-15.031 33.574-33.574 33.574z"/></g></g></g></svg>