<svg height="480pt" viewBox="0 0 480.73487 480" width="480pt" xmlns="http://www.w3.org/2000/svg"><path d="m348.144531 436.582031-9.992187 5.777344-24.800782-42.992187c-2-3.464844-6.25-4.917969-9.953124-3.40625-12.984376 5.285156-26.585938 8.917968-40.476563 10.804687-3.964844.542969-6.921875 3.929687-6.921875 7.929687v49.671876h-32v-49.671876c0-4-2.957031-7.386718-6.921875-7.929687-13.882813-1.890625-27.476563-5.523437-40.453125-10.804687-3.703125-1.511719-7.953125-.058594-9.953125 3.40625l-24.800781 42.992187-27.695313-16 24.800781-43.03125c1.996094-3.460937 1.136719-7.859375-2.015624-10.3125-11.058594-8.597656-21.003907-18.542969-29.601563-29.601563-2.453125-3.148437-6.851563-4.011718-10.3125-2.015624l-43.03125 24.800781-16-27.695313 42.992187-24.800781c3.464844-2 4.917969-6.25 3.40625-9.953125-5.285156-12.980469-8.921874-26.574219-10.8125-40.460938-.542968-3.964843-3.929687-6.921874-7.929687-6.921874h-49.671875v-32h49.671875c4 0 7.386719-2.953126 7.929687-6.917969 1.890626-13.886719 5.523438-27.480469 10.804688-40.457031 1.511719-3.703126.058594-7.953126-3.40625-9.953126l-42.992188-24.800781 16-27.695312 43.03125 24.800781c3.460938 1.996094 7.859376 1.136719 10.3125-2.015625 8.597657-11.058594 18.542969-21.003906 29.601563-29.601563 3.148437-2.453124 4.011719-6.851562 2.015625-10.3125l-24.800781-43.03125 27.695312-16 24.800781 42.992188c2 3.464844 6.25 4.917969 9.953126 3.410156 12.980468-5.289062 26.574218-8.921875 40.460937-10.816406 3.964844-.542969 6.921875-3.929688 6.921875-7.929688v-49.671874h32v49.671874c0 4 2.957031 7.386719 6.921875 7.929688 13.882813 1.890625 27.476563 5.523438 40.453125 10.808594 3.703125 1.507812 7.953125.054687 9.953125-3.410156l24.800781-42.992188 27.695313 16-24.800781 43.03125c-1.996094 3.460938-1.136719 7.859375 2.015624 10.3125 11.058594 8.597656 21.003907 18.542969 29.601563 29.601562 2.453125 3.152344 6.851563 4.011719 10.3125 2.015626l43.03125-24.800782 16 27.695313-42.992187 24.800781c-3.464844 2-4.917969 6.25-3.40625 9.953125 5.285156 12.980469 8.921874 26.574219 10.8125 40.464844.542968 3.964843 3.929687 6.917969 7.929687 6.917969h49.671875v32h-49.671875c-4 0-7.386719 2.957031-7.929687 6.921874-1.890626 13.882813-5.523438 27.476563-10.804688 40.453126-1.511719 3.703124-.058594 7.953124 3.40625 9.953124l42.992188 24.800782-5.746094 9.933594c-2.207032 3.832031-.894532 8.722656 2.933594 10.933593 3.828124 2.210938 8.722656.898438 10.933593-2.933593l9.734375-16.863282c2.210938-3.824218.898438-8.71875-2.925781-10.925781l-44-25.402344c3.644531-10.027343 6.410156-20.359375 8.253906-30.871093h50.824219c4.417969 0 8-3.582032 8-8v-48c0-4.417969-3.582031-8-8-8h-50.824219c-1.84375-10.515626-4.605469-20.851563-8.253906-30.886719l44-25.402344c3.824219-2.207031 5.136719-7.101563 2.925781-10.925781l-24-41.601563c-2.207031-3.824219-7.101562-5.136719-10.925781-2.925781l-44.042969 25.453125c-6.859375-8.171875-14.417968-15.730469-22.589844-22.589844l25.421876-44.039062c2.210937-3.824219.910156-8.714844-2.910157-10.929688l-41.601562-24c-3.824219-2.210937-8.71875-.898437-10.925781 2.929688l-25.402344 44c-10.027344-3.648438-20.359375-6.410157-30.871094-8.257813v-50.824218c0-4.417969-3.582031-8-8-8h-48c-4.417969 0-8 3.582031-8 8v50.824218c-10.515625 1.84375-20.851562 4.609375-30.886719 8.257813l-25.402343-44c-2.207032-3.816407-7.089844-5.128907-10.910157-2.929688l-41.601562 24c-3.824219 2.210938-5.136719 7.101563-2.925781 10.929688l25.421874 44.039062c-8.171874 6.859375-15.730468 14.417969-22.589843 22.589844l-44.027344-25.421875c-3.824219-2.210938-8.71875-.898438-10.925781 2.925781l-24 41.601563c-2.210938 3.824218-.898438 8.71875 2.925781 10.929687l44 25.398438c-3.644531 10.023437-6.40625 20.347656-8.253906 30.855469h-50.824219c-4.417969 0-8 3.582031-8 8v48c0 4.417968 3.582031 8 8 8h50.824219c1.84375 10.515624 4.605469 20.851562 8.253906 30.886718l-44 25.402344c-3.816406 2.207031-5.125 7.089844-2.925781 10.910156l24 41.601563c2.207031 3.824219 7.101562 5.136719 10.925781 2.925781l44.042969-25.421875c6.859375 8.171875 14.417968 15.730469 22.589844 22.589844l-25.421876 44.042969c-2.210937 3.824218-.898437 8.71875 2.925782 10.925781l41.601562 24c1.839844 1.046875 4.015625 1.332031 6.0625.800781 2.054688-.546875 3.804688-1.890625 4.863282-3.726562l25.402343-44c10.023438 3.640624 20.347657 6.398437 30.855469 8.238281v50.824219c0 4.417968 3.582031 8 8 8h48c4.417969 0 8-3.582032 8-8v-50.824219c10.515625-1.84375 20.851562-4.605469 30.886719-8.253907l25.402343 44c1.0625 1.835938 2.8125 3.179688 4.863282 3.726563 2.046875.53125 4.222656.242187 6.0625-.800781l16.929687-9.765625c3.828125-2.210938 5.140625-7.105469 2.929688-10.933594-2.207031-3.828125-7.101563-5.140625-10.929688-2.933594zm0 0"/><path d="m473.703125 428.839844-151.71875-151.71875c14.945313-34.171875 6.726563-74.050782-20.507813-99.53125-27.238281-25.476563-67.578124-31.019532-100.675781-13.832032-2.253906 1.183594-3.8125 3.367188-4.195312 5.882813-.386719 2.515625.449219 5.0625 2.25 6.863281l59.542969 59.542969-22.71875 22.71875-59.542969-59.542969c-1.800781-1.800781-4.347657-2.636718-6.863281-2.25-2.515626.382813-4.699219 1.941406-5.882813 4.195313-17.210937 33.101562-11.679687 73.457031 13.800781 100.707031 25.484375 27.25 65.382813 35.46875 99.5625 20.507812l151.71875 151.6875c9.371094 9.371094 24.5625 9.371094 33.933594 0l11.296875-11.304687c9.375-9.371094 9.375-24.570313 0-33.941406zm-11.304687 22.625-11.308594 11.300781c-3.164063 3.027344-8.144532 3.027344-11.304688 0l-155.730468-155.734375c-2.46875-2.472656-6.257813-3.054688-9.359376-1.441406-26.042968 13.582031-57.726562 9.980468-80.058593-9.101563-22.332031-19.078125-30.835938-49.8125-21.484375-77.65625l56.871094 56.871094c3.125 3.125 8.1875 3.125 11.3125 0l34-34c3.125-3.125 3.125-8.1875 0-11.3125l-56.871094-56.871094c27.84375-9.347656 58.578125-.847656 77.65625 21.484375 19.082031 22.332032 22.683594 54.015625 9.101562 80.058594-1.613281 3.101562-1.03125 6.890625 1.441406 9.359375l155.734376 155.730469c3.125 3.125 3.125 8.1875 0 11.3125zm0 0"/><path d="m265.496094 106.765625c-4.339844-.824219-8.53125 2.023437-9.355469 6.367187-.828125 4.339844 2.023437 8.527344 6.363281 9.355469 7.679688 1.449219 15.195313 3.65625 22.441406 6.582031.949219.390626 1.964844.585938 2.992188.585938 3.824219-.003906 7.113281-2.71875 7.84375-6.476562.730469-3.757813-1.304688-7.503907-4.851562-8.941407-8.210938-3.320312-16.730469-5.824219-25.433594-7.472656zm0 0"/><path d="m104 240.367188c.082031 75.078124 60.925781 135.917968 136 136 4.417969 0 8-3.582032 8-8 0-4.417969-3.582031-8-8-8-66.273438 0-120-53.726563-120-120 0-66.273438 53.726562-120 120-120 4.417969 0 8-3.582032 8-8 0-4.417969-3.582031-8-8-8-75.074219.085937-135.917969 60.925781-136 136zm0 0"/></svg>