<?xml version="1.0" encoding="iso-8859-1"?>
<!-- Generator: Adobe Illustrator 19.0.0, SVG Export Plug-In . SVG Version: 6.00 Build 0)  -->
<svg version="1.1" id="Capa_1" xmlns="http://www.w3.org/2000/svg" xmlns:xlink="http://www.w3.org/1999/xlink" x="0px" y="0px"
	 viewBox="0 0 511.998 511.998" style="enable-background:new 0 0 511.998 511.998;" xml:space="preserve">
<g>
	<g>
		<path d="M264.352,471.675c-57.452-1.783-111.489-25.162-152.155-65.828c-57.49-57.489-79.16-141.506-57.895-218.969l13.744,34.236
			c1.217,3.033,4.131,4.875,7.209,4.875c0.964,0,1.943-0.18,2.891-0.561c3.981-1.598,5.912-6.12,4.314-10.101l-21.69-54.033
			c-0.91-2.268-2.835-3.976-5.197-4.608c-1.933-0.519-3.968-0.256-5.699,0.68c-0.092,0.049-0.185,0.095-0.275,0.147
			c-0.08,0.048-0.156,0.099-0.234,0.149c-0.197,0.124-0.387,0.256-0.572,0.398c-0.008,0.006-0.018,0.011-0.025,0.018l-45.797,35.95
			c-3.375,2.649-3.962,7.531-1.314,10.904c2.648,3.374,7.531,3.962,10.904,1.314l25.926-20.352
			c-21.303,81.929,2.043,170.255,62.724,230.936c43.472,43.471,101.239,68.462,162.657,70.368c0.082,0.003,0.164,0.004,0.244,0.004
			c4.178,0,7.628-3.32,7.758-7.526C272.007,475.392,268.639,471.808,264.352,471.675z"/>
	</g>
</g>
<g>
	<g>
		<path d="M483.492,132.85c-2.03-3.777-6.734-5.198-10.517-3.168c-3.778,2.03-5.197,6.738-3.168,10.517
			c46.577,86.727,30.44,195.965-39.243,265.647c-28.644,28.645-63.733,48.692-102.418,58.701l22.776-29.018
			c2.649-3.375,2.06-8.256-1.314-10.904c-3.377-2.65-8.257-2.061-10.904,1.314l-35.949,45.801c-0.03,0.037-0.053,0.079-0.082,0.117
			c-0.107,0.141-0.205,0.287-0.301,0.434c-0.059,0.09-0.121,0.178-0.176,0.27c-0.11,0.183-0.208,0.374-0.302,0.566
			c-0.062,0.126-0.118,0.254-0.173,0.383c-0.073,0.17-0.143,0.341-0.203,0.517c-0.041,0.121-0.074,0.244-0.109,0.367
			c-0.04,0.141-0.08,0.281-0.113,0.425c-0.031,0.136-0.055,0.272-0.079,0.41c-0.022,0.129-0.041,0.26-0.057,0.391
			c-0.018,0.151-0.032,0.302-0.041,0.455c-0.006,0.112-0.008,0.224-0.01,0.337c-0.002,0.173-0.004,0.346,0.005,0.519
			c0.004,0.076,0.013,0.151,0.02,0.227c0.037,0.465,0.104,0.931,0.227,1.39c0.036,0.135,0.087,0.261,0.13,0.392
			c0.03,0.093,0.059,0.186,0.092,0.279c0.056,0.151,0.117,0.299,0.182,0.445c0.041,0.094,0.085,0.186,0.13,0.279
			c0.07,0.145,0.142,0.288,0.222,0.428c0.04,0.07,0.085,0.137,0.127,0.205c0.174,0.285,0.366,0.557,0.574,0.817
			c0.038,0.048,0.074,0.097,0.113,0.143c0.115,0.136,0.236,0.265,0.359,0.393c0.051,0.052,0.101,0.104,0.153,0.153
			c0.13,0.127,0.263,0.253,0.403,0.371c0.026,0.022,0.054,0.042,0.08,0.064c0.295,0.243,0.609,0.465,0.939,0.665
			c0.036,0.022,0.071,0.046,0.108,0.067c0.15,0.086,0.303,0.166,0.46,0.242c0.083,0.041,0.166,0.08,0.25,0.118
			c0.096,0.043,0.187,0.095,0.286,0.135L360,505.429c0.949,0.381,1.927,0.561,2.891,0.561c3.079,0,5.993-1.843,7.209-4.875
			c1.598-3.982-0.333-8.504-4.314-10.101l-30.579-12.273c40.113-10.96,76.498-32.07,106.338-61.91
			c37.301-37.302,60.869-84.56,68.156-136.665C516.753,229.767,507.443,177.45,483.492,132.85z"/>
	</g>
</g>
<g>
	<g>
		<path d="M459.403,98.167l-8.235-57.635c-0.608-4.248-4.556-7.19-8.787-6.59c-4.247,0.607-7.197,4.541-6.59,8.787l4.673,32.708
			C395.135,30.66,335.155,6.008,271.381,6.008c-64.281,0-124.715,25.032-170.168,70.484c-13.1,13.101-24.657,27.647-34.349,43.235
			c-2.266,3.643-1.148,8.431,2.495,10.697c1.276,0.794,2.693,1.172,4.094,1.172c2.595,0,5.131-1.301,6.603-3.667
			c9.066-14.581,19.88-28.192,32.142-40.452c87.775-87.775,230.593-87.775,318.367,0c0.351,0.351,0.693,0.715,1.043,1.069
			l-36.434-5.204c-4.24-0.591-8.18,2.343-8.787,6.59c-0.607,4.247,2.344,8.18,6.59,8.787l57.638,8.233
			c0.367,0.053,0.733,0.078,1.099,0.078c2.045,0,4.025-0.808,5.492-2.275C458.935,103.028,459.749,100.587,459.403,98.167z"/>
	</g>
</g>
<g>
	<g>
		<path d="M347.763,219.143c-1.433-2.205-3.883-3.534-6.513-3.534h-58.158l19.286-154.293c0.477-3.82-1.917-7.414-5.626-8.446
			c-3.71-1.032-7.615,0.81-9.178,4.329l-93.157,209.601c-1.068,2.401-0.847,5.182,0.584,7.387c1.433,2.205,3.883,3.534,6.513,3.534
			h58.159l-19.286,154.288c-0.478,3.82,1.916,7.414,5.625,8.446c0.693,0.194,1.393,0.285,2.082,0.285
			c3.004,0,5.825-1.752,7.097-4.613l93.156-209.596C349.415,224.128,349.194,221.347,347.763,219.143z M262.308,381.865
			l13.869-110.948c0.276-2.211-0.41-4.433-1.884-6.105c-1.475-1.669-3.595-2.626-5.823-2.626h-55.006l66.989-150.728
			l-13.869,110.954c-0.276,2.211,0.41,4.433,1.884,6.105c1.475,1.669,3.595,2.626,5.823,2.626h55.005L262.308,381.865z"/>
	</g>
</g>
<g>
</g>
<g>
</g>
<g>
</g>
<g>
</g>
<g>
</g>
<g>
</g>
<g>
</g>
<g>
</g>
<g>
</g>
<g>
</g>
<g>
</g>
<g>
</g>
<g>
</g>
<g>
</g>
<g>
</g>
</svg>
