<?xml version="1.0" encoding="iso-8859-1"?>
<!-- Generator: Adobe Illustrator 19.0.0, SVG Export Plug-In . SVG Version: 6.00 Build 0)  -->
<svg version="1.1" id="Capa_1" xmlns="http://www.w3.org/2000/svg" xmlns:xlink="http://www.w3.org/1999/xlink" x="0px" y="0px"
	 viewBox="0 0 512 512" style="enable-background:new 0 0 512 512;" xml:space="preserve">
<g>
	<g>
		<path d="M494.933,248.937V59.733c-0.015-14.132-11.468-25.585-25.6-25.6H460.8V25.6C460.785,11.468,449.332,0.015,435.2,0h-17.067
			c-14.132,0.015-25.585,11.468-25.6,25.6v8.533H307.2V25.6C307.185,11.468,295.732,0.015,281.6,0h-51.2
			c-14.132,0.015-25.585,11.468-25.6,25.6v8.533h-85.333V25.6c-0.015-14.132-11.468-25.585-25.6-25.6H76.8
			C62.668,0.015,51.215,11.468,51.2,25.6v8.533h-8.533c-14.132,0.015-25.585,11.468-25.6,25.6v189.204
			C7.132,252.458,0.012,261.928,0,273.067V486.4c0.015,14.132,11.468,25.585,25.6,25.6h460.8c14.132-0.015,25.585-11.468,25.6-25.6
			V273.067C511.988,261.928,504.868,252.458,494.933,248.937z M409.6,25.6c0.005-4.711,3.822-8.529,8.533-8.533H435.2
			c4.711,0.005,8.529,3.822,8.533,8.533v8.533H409.6V25.6z M221.867,25.6c0.005-4.711,3.822-8.529,8.533-8.533h51.2
			c4.711,0.005,8.529,3.822,8.533,8.533v8.533h-68.267V25.6z M68.267,25.6c0.005-4.711,3.822-8.529,8.533-8.533h17.067
			c4.711,0.005,8.529,3.822,8.533,8.533v8.533H68.267V25.6z M34.133,59.733c0.005-4.711,3.822-8.529,8.533-8.533h17.067h51.2h102.4
			h85.333h102.4h51.2h17.067c4.711,0.005,8.529,3.822,8.533,8.533v187.733H460.8V76.8c0.001-2.263-0.898-4.434-2.499-6.035
			c-1.6-1.6-3.771-2.499-6.035-2.499H59.733c-2.263-0.001-4.434,0.898-6.035,2.499c-1.6,1.6-2.499,3.771-2.499,6.035v170.667H34.133
			V59.733z M180.767,247.467L145.9,191.742c-1.612-2.594-4.488-4.129-7.541-4.024c-3.053,0.105-5.816,1.834-7.246,4.533
			c-1.43,2.699-1.308,5.957,0.32,8.541l29.204,46.675h-20.139l-34.194-54.7c-7.472-11.974-3.845-27.737,8.108-35.242
			c12.022-7.255,27.631-3.667,35.279,8.108l51.143,81.833H180.767z M221.867,264.533h68.267V332.8
			c-0.005,4.711-3.822,8.529-8.533,8.533h-51.2c-4.711-0.005-8.529-3.823-8.533-8.533V264.533z M298.667,247.467h-25.081
			L329,181.717c1.921-2.279,2.44-5.27,1.652-7.929c-3.915-14.904,0.371-30.773,11.279-41.672
			c10.958-10.949,26.926-15.218,41.885-11.199l-22,12.608c-11.11,6.504-14.931,20.729-8.575,31.925l8.571,14.875
			c6.445,11.204,20.748,15.068,31.958,8.633l19.504-11.225c-4.126,11.208-12.686,20.221-23.666,24.92
			c-10.98,4.699-23.411,4.667-34.367-0.087c-3.78-1.649-8.104-0.343-10.389,2.903l-35.392,41.998H298.667z M354.506,220.499
			c5.881,1.858,12.022,2.818,18.215,2.826l0,0.001c16.274-0.075,31.83-6.706,43.154-18.394s17.46-27.446,17.021-43.714
			c-0.099-2.995-1.763-5.718-4.382-7.174s-5.81-1.431-8.406,0.066l-34.833,20.05c-1.457,0.843-3.19,1.07-4.816,0.632
			c-1.625-0.438-3.01-1.505-3.847-2.966l-8.571-14.875c-1.71-3.036-0.681-6.882,2.317-8.658l36.012-20.634
			c2.535-1.451,4.151-4.098,4.284-7.016c0.133-2.918-1.237-5.701-3.629-7.376c-20.804-14.512-48.462-14.466-69.218,0.114
			c-19.494,13.695-28.989,37.466-24.606,60.597l-61.936,73.488h-30.299l-56.812-90.9c-8.074-12.939-22.442-20.582-37.684-20.047
			c-15.242,0.535-29.038,9.167-36.185,22.641s-6.556,29.737,1.549,42.656l28.534,45.65h-9.434H68.267V85.333h375.467v162.133
			h-42.667H331.78L354.506,220.499z M102.4,341.333H68.267v-17.067H102.4V341.333z M68.267,358.4H102.4v34.133
			c-0.005,4.711-3.822,8.529-8.533,8.533H76.8c-4.711-0.005-8.529-3.823-8.533-8.533V358.4z M102.4,307.2H68.267v-42.667H102.4
			V307.2z M409.6,324.267h34.133v17.067H409.6V324.267z M443.733,264.533V307.2H409.6v-42.667H443.733z M409.6,358.4h34.133v34.133
			c-0.005,4.711-3.822,8.529-8.533,8.533h-17.067c-4.711-0.005-8.529-3.823-8.533-8.533V358.4z M494.933,486.4
			c-0.005,4.711-3.822,8.529-8.533,8.533H25.6c-4.711-0.005-8.529-3.822-8.533-8.533V273.067c0.005-4.711,3.822-8.529,8.533-8.533
			h25.6v128c0.015,14.132,11.468,25.585,25.6,25.6h17.067c14.132-0.015,25.585-11.468,25.6-25.6v-128H204.8V332.8
			c0.015,14.132,11.468,25.585,25.6,25.6h51.2c14.132-0.015,25.585-11.468,25.6-25.6v-68.267h85.333v128
			c0.015,14.132,11.468,25.585,25.6,25.6H435.2c14.132-0.015,25.585-11.468,25.6-25.6v-128h25.6
			c4.711,0.005,8.529,3.823,8.533,8.533V486.4z"/>
	</g>
</g>
<g>
</g>
<g>
</g>
<g>
</g>
<g>
</g>
<g>
</g>
<g>
</g>
<g>
</g>
<g>
</g>
<g>
</g>
<g>
</g>
<g>
</g>
<g>
</g>
<g>
</g>
<g>
</g>
<g>
</g>
</svg>
