<svg id="_x33_0" enable-background="new 0 0 62 57.828" height="512" viewBox="0 0 62 57.828" width="512" xmlns="http://www.w3.org/2000/svg"><g><path d="m61 31v-16h-6c-1.889-2.518-4.852-4-8-4-3.303 0-6.576-.63-9.642-1.857l-.058-.023c-.198-.079-.41-.12-.623-.12h-.059c-.894 0-1.618.724-1.618 1.618 0 1.952 1.411 3.617 3.336 3.938l1.759.293c.522.087.905.539.905 1.068 0 .598-.485 1.083-1.083 1.083h-14.917c-1.105 0-2 .895-2 2s.895 2 2 2h8c-1.105 0-2 .895-2 2s.895 2 2 2c-1.105 0-2 .895-2 2s.895 2 2 2h2c-1.105 0-2 .895-2 2s.895 2 2 2h11.528c2.941 0 5.842-.685 8.472-2z"/><path d="m5.816 20h2.184v-2h-2.184c-.414-1.161-1.514-2-2.816-2-1.654 0-3 1.346-3 3s1.346 3 3 3c1.302 0 2.402-.839 2.816-2z"/><path d="m6 5.816v6.184h4.118l-.143-.36 1.64-1.64h-3.615v-4.184c1.161-.414 2-1.514 2-2.816 0-1.654-1.346-3-3-3s-3 1.346-3 3c0 1.302.839 2.402 2 2.816z"/><path d="m16 34.184v-4.782c-.091-.01-.18-.027-.272-.027-.298 0-.589.055-.865.165l-.863.343v4.302c-1.161.414-2 1.514-2 2.816 0 1.654 1.346 3 3 3s3-1.346 3-3c0-1.303-.839-2.403-2-2.817z"/><path d="m11.615 28-1.639-1.64.142-.36h-4.118v12.184c-1.161.414-2 1.514-2 2.816 0 1.654 1.346 3 3 3s3-1.346 3-3c0-1.302-.839-2.402-2-2.816v-10.184z"/><path d="m41 42h-8c-.551 0-1 .449-1 1s.449 1 1 1h8c.551 0 1-.449 1-1s-.449-1-1-1z"/><path d="m42 38h-10v1c0 .551.449 1 1 1h8c.551 0 1-.449 1-1z"/><path d="m33.618 46-2.458 4.915 4.84 6.913v-5.105c-.595-.346-1-.984-1-1.723 0-1.105.895-2 2-2s2 .895 2 2c0 .738-.405 1.376-1 1.723v5.105l4.839-6.913-2.457-4.915z"/><path d="m27.535 8.257.677-.431 3.962 3.962-.431.677c-.417.656-.486 1.444-.188 2.163.056.134.132.253.208.372h3.134c-1.178-1.099-1.897-2.663-1.897-4.382 0-1.995 1.623-3.618 3.618-3.618.53 0 .99.089 1.427.264 2.899 1.159 5.893 1.736 8.955 1.736.991 0 1.966.139 2.913.378-2.657-4.473-7.547-7.378-12.913-7.378-4.825 0-9.297 2.293-12.122 6.169.15.109.315.203.494.276.718.297 1.507.229 2.163-.188z"/><path d="m42.087 36c.053-.333.141-.666.248-1h-7.335c-2.206 0-4-1.794-4-4 0-.175.011-.348.033-.518-.654-.371-1.187-.924-1.546-1.585l-1.126 1.126c1.686 1.89 3.197 3.741 3.554 5.976h10.172z"/><path d="m29.47 25.134c-.027-.136-.056-.272-.07-.409-.252-.524-.4-1.106-.4-1.725h-3.553c-1.099 1.221-2.678 2-4.447 2-3.31 0-6-2.69-6-6s2.69-6 6-6c1.769 0 3.348.779 4.447 2h4.14c-.29-.948-.267-1.96.095-2.875l-1.807-1.807c-1.042.413-2.216.41-3.269-.025-1.053-.436-1.883-1.265-2.328-2.293h-2.556c-.445 1.028-1.275 1.857-2.329 2.293-1.052.436-2.227.438-3.269.025l-1.807 1.807c.412 1.042.411 2.215-.025 3.269-.437 1.053-1.266 1.884-2.293 2.329v2.556c1.028.445 1.857 1.275 2.293 2.329.436 1.053.437 2.227.025 3.269l1.807 1.807c1.042-.413 2.216-.41 3.269.025 1.053.437 1.884 1.266 2.329 2.293h2.556c.445-1.028 1.275-1.857 2.329-2.293 1.053-.435 2.228-.438 3.269-.025l1.157-1.157c.058-.5.211-.968.437-1.393z"/><path d="m21 17c-1.103 0-2 .897-2 2s.897 2 2 2c.179 0 .35-.031.515-.076-.318-.573-.515-1.223-.515-1.924s.197-1.351.515-1.924c-.165-.045-.336-.076-.515-.076z"/><path d="m50 54h2v2h-2z"/><path d="m54 54h2v2h-2z"/><path d="m58 54h2v2h-2z"/><path d="m48 50h14v2h-14z"/><path d="m48 46h14v2h-14z"/><path d="m48 42h14v2h-14z"/></g></svg>