<?xml version="1.0" encoding="UTF-8"?>
<svg xmlns="http://www.w3.org/2000/svg" id="Icons" viewBox="0 0 74 74" width="512" height="512"><path d="M41.25,72h-8.5a1,1,0,0,1-.965-.737l-1.561-5.739a29.04,29.04,0,0,1-8.608-3.558l-5.159,2.952a1,1,0,0,1-1.2-.161l-6.01-6.01a1,1,0,0,1-.161-1.2l2.952-5.159a29.04,29.04,0,0,1-3.558-8.608L2.737,42.215A1,1,0,0,1,2,41.25v-8.5a1,1,0,0,1,.737-.965l5.739-1.561a29.04,29.04,0,0,1,3.558-8.608L9.082,16.457a1,1,0,0,1,.161-1.2l6.01-6.01a1,1,0,0,1,1.2-.161l5.159,2.952a29.04,29.04,0,0,1,8.608-3.558l1.561-5.739A1,1,0,0,1,32.75,2h8.5a1,1,0,0,1,.965.737l1.561,5.739a29.04,29.04,0,0,1,8.608,3.558l5.159-2.952a1,1,0,0,1,1.2.161l6.01,6.01a1,1,0,0,1,.161,1.2l-2.952,5.159a29.04,29.04,0,0,1,3.558,8.608l5.739,1.561A1,1,0,0,1,72,32.75v8.5a1,1,0,0,1-.737.965l-5.739,1.561a29.04,29.04,0,0,1-3.558,8.608l2.952,5.159a1,1,0,0,1-.161,1.2l-6.01,6.01a1,1,0,0,1-1.2.161l-5.159-2.952a29.04,29.04,0,0,1-8.608,3.558l-1.561,5.739A1,1,0,0,1,41.25,72Zm-7.736-2h6.972l1.519-5.583a1,1,0,0,1,.757-.715,27.091,27.091,0,0,0,9.056-3.743,1,1,0,0,1,1.038-.027l5.018,2.87L62.8,57.874l-2.87-5.018a1,1,0,0,1,.027-1.038A27.091,27.091,0,0,0,63.7,42.762a1,1,0,0,1,.715-.757L70,40.486V33.514L64.417,32a1,1,0,0,1-.715-.757,27.091,27.091,0,0,0-3.743-9.056,1,1,0,0,1-.027-1.038l2.87-5.018L57.874,11.2l-5.018,2.87a1,1,0,0,1-1.038-.027A27.091,27.091,0,0,0,42.762,10.3a1,1,0,0,1-.757-.715L40.486,4H33.514L32,9.583a1,1,0,0,1-.757.715,27.091,27.091,0,0,0-9.056,3.743,1,1,0,0,1-1.038.027L16.126,11.2,11.2,16.126l2.87,5.018a1,1,0,0,1-.027,1.038A27.091,27.091,0,0,0,10.3,31.238,1,1,0,0,1,9.583,32L4,33.514v6.972l5.583,1.519a1,1,0,0,1,.715.757,27.091,27.091,0,0,0,3.743,9.056,1,1,0,0,1,.027,1.038L11.2,57.874,16.126,62.8l5.018-2.87a1,1,0,0,1,1.038.027A27.091,27.091,0,0,0,31.238,63.7a1,1,0,0,1,.757.715Z"/><path d="M55.041,30.121a1,1,0,0,1-.92-.608,17.616,17.616,0,0,0-1.382-2.592,1,1,0,0,1,1.682-1.082,19.413,19.413,0,0,1,1.538,2.888,1,1,0,0,1-.526,1.313A1.012,1.012,0,0,1,55.041,30.121Z"/><path d="M37,57.69a20.69,20.69,0,0,1,0-41.38,16.31,16.31,0,0,1,1.778.086,1,1,0,1,1-.216,1.988A14.409,14.409,0,0,0,37,18.31,18.69,18.69,0,1,0,55.68,37.361a1,1,0,0,1,2,.037A20.785,20.785,0,0,1,37,57.69Z"/><path d="M48.809,22.25a.993.993,0,0,1-.6-.2,18.237,18.237,0,0,0-2.371-1.516,1,1,0,1,1,.952-1.76,20.476,20.476,0,0,1,2.629,1.684,1,1,0,0,1-.606,1.8Z"/><path d="M41.314,57.15a1,1,0,0,1-1-1V45.985a1,1,0,0,1,2,0V56.15A1,1,0,0,1,41.314,57.15Z"/><path d="M32.686,57.15a1,1,0,0,1-1-1V45.985a1,1,0,0,1,2,0V56.15A1,1,0,0,1,32.686,57.15Z"/><path d="M32.685,46.985a.988.988,0,0,1-.471-.118,10.186,10.186,0,0,1,.606-18.279,1,1,0,1,1,.824,1.824A8.185,8.185,0,0,0,33.157,45.1a1,1,0,0,1-.472,1.881Z"/><path d="M41.315,46.985a1,1,0,0,1-.472-1.881,8.185,8.185,0,0,0-.487-14.692,1,1,0,1,1,.824-1.824,10.186,10.186,0,0,1,.606,18.279A.988.988,0,0,1,41.315,46.985Z"/><path d="M40.1,37.226H33.9a1.669,1.669,0,0,1-1.667-1.667V29.5a1,1,0,0,1,2,0v5.726h5.536V29.5a1,1,0,0,1,2,0v6.059A1.669,1.669,0,0,1,40.1,37.226Z"/></svg>
