<svg id="Layer_3" height="512" viewBox="0 0 64 64" width="512" xmlns="http://www.w3.org/2000/svg" data-name="Layer 3"><g fill="#e2e7f6"><path d="m15.949 4.915h2v10.067h-2z" transform="matrix(.707 -.707 .707 .707 -2.071 14.898)"/><path d="m42.06 9.05h9.779v2h-9.779z" transform="matrix(.707 -.707 .707 .707 6.645 36.142)"/><path d="m11.76 36.677h11.127v2h-11.127z" transform="matrix(.707 -.707 .707 .707 -21.568 23.285)"/><path d="m45.641 32.346h2v10.589h-2z" transform="matrix(.707 -.707 .707 .707 -12.956 44.001)"/><path d="m7.067 23h9.881v2h-9.881z"/><path d="m47 23h10v2h-10z"/></g><rect fill="#474747" height="10" rx="2" width="22" x="21" y="43"/><path d="m40 49v-6h-17a2 2 0 0 0 -2 2v4z" fill="#686868"/><path d="m48 23a16 16 0 1 0 -28.377 10.137 14.275 14.275 0 0 1 3.377 9.03v.833h18v-.838a13.917 13.917 0 0 1 3.287-8.916 15.926 15.926 0 0 0 3.713-10.246z" fill="#f9d266"/><path d="m23 53v2a2 2 0 0 0 2 2h14a2 2 0 0 0 2-2v-2" fill="#939393"/><path d="m28 57v1a4 4 0 0 0 4 4 4 4 0 0 0 4-4v-1" fill="#ccc"/><path d="m24 47h16v2h-16z" fill="#939393"/><path d="m44 25v-4h-2.2a9.943 9.943 0 0 0 -1.459-3.512l1.559-1.559-2.829-2.829-1.559 1.56a9.943 9.943 0 0 0 -3.512-1.46v-2.2h-4v2.2a9.943 9.943 0 0 0 -3.512 1.459l-1.559-1.559-2.829 2.829 1.559 1.559a9.943 9.943 0 0 0 -1.459 3.512h-2.2v4h2.2a9.943 9.943 0 0 0 1.459 3.512l-1.559 1.559 2.829 2.829 1.559-1.559a9.943 9.943 0 0 0 3.512 1.459v2.2h4v-2.2a9.943 9.943 0 0 0 3.512-1.459l1.559 1.559 2.829-2.829-1.56-1.559a9.943 9.943 0 0 0 1.46-3.512z" fill="#474747"/><circle cx="32" cy="23" fill="#f2f2f2" r="6"/><path d="m26 23a5.982 5.982 0 0 0 2.371 4.77 5.993 5.993 0 0 0 5.258-10.54 5.986 5.986 0 0 0 -7.629 5.77z" fill="#fff"/><circle cx="12" cy="5" fill="#b52f28" r="3"/><circle cx="5" cy="24" fill="#559b2d" r="3"/><circle cx="52" cy="5" fill="#b52f28" r="3"/><path d="m49 5a2.975 2.975 0 0 0 .614 1.8 2.984 2.984 0 0 0 3.436-4.6 2.979 2.979 0 0 0 -4.05 2.8z" fill="#d23f34"/><path d="m9 5a2.975 2.975 0 0 0 .614 1.8 2.984 2.984 0 0 0 3.436-4.6 2.979 2.979 0 0 0 -4.05 2.8z" fill="#d23f34"/><circle cx="12" cy="43" fill="#b52f28" r="3"/><circle cx="52" cy="43" fill="#b52f28" r="3"/><circle cx="59" cy="24" fill="#559b2d" r="3"/><path d="m9 43a2.975 2.975 0 0 0 .614 1.8 2.984 2.984 0 0 0 3.436-4.6 2.979 2.979 0 0 0 -4.05 2.8z" fill="#d23f34"/><path d="m49 43a2.975 2.975 0 0 0 .614 1.8 2.984 2.984 0 0 0 3.436-4.6 2.979 2.979 0 0 0 -4.05 2.8z" fill="#d23f34"/><path d="m56 24a2.975 2.975 0 0 0 .614 1.8 2.984 2.984 0 0 0 3.436-4.6 2.979 2.979 0 0 0 -4.05 2.8z" fill="#6bc13b"/><path d="m2 24a2.975 2.975 0 0 0 .614 1.8 2.984 2.984 0 0 0 3.436-4.6 2.979 2.979 0 0 0 -4.05 2.8z" fill="#6bc13b"/></svg>