<svg id="Layer_1" height="512" viewBox="0 0 512 512" width="512" xmlns="http://www.w3.org/2000/svg"><g><g><g><g><circle cx="243.619" cy="256" fill="#fff" r="77.991"/><path d="m243.619 336.991c-21.633 0-41.972-8.425-57.269-23.722-31.578-31.578-31.578-82.959 0-114.538 15.297-15.297 35.636-23.722 57.269-23.722s41.972 8.424 57.269 23.722c15.297 15.297 23.722 35.636 23.722 57.269s-8.425 41.972-23.722 57.269-35.636 23.722-57.269 23.722zm0-155.982c-20.031 0-38.863 7.8-53.027 21.964-29.238 29.239-29.238 76.814 0 106.053 14.164 14.164 32.996 21.964 53.027 21.964s38.862-7.801 53.026-21.964c14.164-14.164 21.964-32.996 21.964-53.026s-7.801-38.863-21.964-53.027c-14.164-14.163-32.995-21.964-53.026-21.964z" fill="#166176"/></g><path d="m286.453 216.166c-.768 0-1.535-.293-2.121-.878-2.389-2.388-4.991-4.574-7.734-6.496-1.357-.951-1.687-2.821-.736-4.178s2.822-1.687 4.178-.736c3.028 2.122 5.899 4.533 8.534 7.167 1.172 1.171 1.172 3.071 0 4.243-.585.585-1.353.878-2.121.878z" fill="#166176"/><path d="m200.785 216.166c-.768 0-1.536-.293-2.122-.879-1.171-1.171-1.171-3.071 0-4.243 16.004-16.004 39.544-22.314 61.434-16.458 1.601.428 2.551 2.072 2.123 3.673-.427 1.601-2.07 2.553-3.673 2.124-19.826-5.301-41.146.41-55.642 14.905-.584.585-1.352.878-2.12.878z" fill="#166176"/><g><path d="m321.464 321.659-16.973-16.973c-3.603 4.499-7.686 8.583-12.185 12.185l16.973 16.973z" fill="#fff"/><path d="m309.278 336.844c-.768 0-1.536-.293-2.121-.879l-16.973-16.973c-.604-.603-.921-1.435-.875-2.286s.455-1.643 1.12-2.176c4.316-3.457 8.259-7.4 11.719-11.72.533-.666 1.325-1.073 2.176-1.12.854-.048 1.684.271 2.287.875l16.973 16.973c1.171 1.171 1.171 3.071 0 4.242l-12.185 12.185c-.585.586-1.353.879-2.121.879zm-12.531-19.774 12.532 12.532 7.942-7.942-12.532-12.532c-2.461 2.825-5.118 5.482-7.942 7.942z" fill="#166176"/></g><g><path d="m384.617 373.697-20.525-20.525-15.181-15.181-18.896-18.896c-1.653-1.654-4.334-1.654-5.988 0l-17.435 17.435c-1.654 1.654-1.654 4.334 0 5.988l54.602 54.602c6.403 6.403 16.785 6.403 23.189 0l.234-.234c6.404-6.404 6.404-16.786 0-23.189z" fill="#b4dee1"/><path d="m372.789 404.914c-4.967 0-9.934-1.891-13.715-5.672l-54.602-54.602c-2.82-2.821-2.82-7.41 0-10.23l17.436-17.436c2.819-2.82 7.409-2.821 10.23 0l18.896 18.896c1.172 1.171 1.172 3.071 0 4.242-1.171 1.172-3.071 1.172-4.242 0l-18.896-18.896c-.48-.479-1.263-.48-1.746 0l-17.436 17.436c-.481.481-.48 1.264 0 1.746l54.602 54.602c5.224 5.223 13.724 5.222 18.947 0l.234-.234c5.223-5.224 5.223-13.723 0-18.947l-20.525-20.524c-1.172-1.172-1.172-3.071 0-4.243s3.072-1.171 4.243 0l20.525 20.525c7.563 7.563 7.563 19.869 0 27.431l-.234.234c-3.783 3.781-8.75 5.672-13.717 5.672z" fill="#166176"/></g></g><g><path d="m405.02 229.315-34.156-4.572c-2.379-.318-4.377-1.99-5.047-4.294-2.621-9.019-6.217-17.622-10.659-25.693-1.159-2.106-.932-4.703.527-6.613l20.932-27.401c1.864-2.44 1.634-5.882-.536-8.053l-29.15-29.149c-2.171-2.171-5.613-2.4-8.053-.536l-27.401 20.931c-1.91 1.459-4.507 1.686-6.613.527-8.071-4.443-16.674-8.039-25.693-10.659-2.305-.67-3.976-2.668-4.294-5.047l-4.572-34.156c-.407-3.043-3.004-5.315-6.074-5.315h-41.223c-3.07 0-5.666 2.272-6.074 5.315l-4.572 34.156c-.319 2.379-1.99 4.377-4.294 5.047-9.019 2.621-17.622 6.217-25.693 10.66-2.106 1.159-4.703.932-6.613-.527l-27.401-20.931c-2.44-1.864-5.882-1.634-8.053.536l-18.486 18.486-10.664 10.664c-2.171 2.171-2.4 5.613-.537 8.053l20.931 27.401c1.459 1.91 1.686 4.507.527 6.613-4.443 8.071-8.039 16.674-10.659 25.693-.67 2.305-2.668 3.976-5.047 4.294l-34.156 4.572c-3.043.407-5.315 3.004-5.315 6.074v41.223c0 3.07 2.272 5.666 5.315 6.074l34.155 4.572c2.379.319 4.377 1.99 5.047 4.294 2.621 9.019 6.217 17.621 10.66 25.693 1.159 2.106.932 4.703-.527 6.613l-20.931 27.401c-1.864 2.44-1.634 5.882.537 8.053l29.149 29.15c2.171 2.171 5.613 2.4 8.053.536l27.4-20.931c1.91-1.459 4.508-1.686 6.613-.527 8.071 4.443 16.674 8.039 25.693 10.659 2.305.67 3.976 2.668 4.294 5.047l4.572 34.156c.407 3.043 3.004 5.315 6.074 5.315h41.223c3.07 0 5.666-2.272 6.074-5.315l4.572-34.156c.319-2.379 1.99-4.377 4.294-5.047 8.96-2.604 17.508-6.172 25.534-10.575l-24.942-24.942c-11.126 4.645-23.333 7.219-36.143 7.219-51.86 0-93.9-42.041-93.9-93.9 0-51.86 42.04-93.9 93.9-93.9 51.859 0 93.9 42.041 93.9 93.9 0 12.877-2.597 25.145-7.288 36.318l24.926 24.926c4.443-8.071 8.039-16.674 10.66-25.693.67-2.305 2.668-3.976 5.047-4.294l34.156-4.572c3.043-.407 5.315-3.003 5.315-6.074v-41.224c.001-3.072-2.271-5.668-5.314-6.075z" fill="#b4dee1"/><path d="m264.231 425.716h-41.224c-4.553 0-8.442-3.403-9.047-7.917l-4.572-34.156c-.164-1.224-1.011-2.23-2.158-2.564-9.105-2.646-17.955-6.317-26.302-10.912-1.051-.578-2.365-.467-3.346.283l-27.4 20.931c-3.619 2.765-8.775 2.421-11.995-.799l-29.149-29.149c-3.22-3.22-3.564-8.377-.799-11.995l20.931-27.401c.75-.981.861-2.295.282-3.345-4.594-8.347-8.266-17.196-10.912-26.303-.333-1.146-1.34-1.994-2.564-2.157l-34.155-4.572c-4.514-.605-7.917-4.495-7.917-9.048v-41.223c0-4.553 3.403-8.442 7.916-9.047l34.156-4.572c1.224-.164 2.23-1.011 2.564-2.158 2.646-9.106 6.317-17.955 10.913-26.302.578-1.05.467-2.364-.283-3.345l-20.931-27.401c-2.764-3.619-2.421-8.775.799-11.995l10.663-10.664c1.172-1.172 3.072-1.171 4.243 0 1.172 1.172 1.172 3.071 0 4.243l-10.664 10.662c-1.104 1.104-1.221 2.871-.274 4.11l20.931 27.401c2.192 2.87 2.496 6.748.772 9.881-4.383 7.961-7.884 16.4-10.407 25.083-.996 3.428-3.952 5.952-7.53 6.431l-34.156 4.572c-1.546.207-2.712 1.54-2.712 3.1v41.224c0 1.561 1.166 2.893 2.713 3.1l34.155 4.572c3.578.479 6.534 3.003 7.53 6.43 2.523 8.684 6.024 17.123 10.406 25.083 1.725 3.133 1.422 7.012-.771 9.881l-20.931 27.401c-.947 1.24-.829 3.007.274 4.11l29.149 29.149c1.104 1.103 2.871 1.222 4.11.274l27.4-20.932c2.872-2.193 6.75-2.496 9.882-.771 7.961 4.382 16.4 7.883 25.083 10.406 3.428.996 5.952 3.952 6.431 7.53l4.572 34.156c.207 1.546 1.54 2.713 3.1 2.713h41.224c1.561 0 2.893-1.167 3.1-2.713l4.572-34.156c.479-3.578 3.003-6.534 6.43-7.53 7.341-2.133 14.514-4.969 21.375-8.448l-20.661-20.661c-11.29 4.442-23.197 6.692-35.428 6.692-53.431 0-96.9-43.469-96.9-96.9s43.469-96.9 96.9-96.9 96.9 43.469 96.9 96.9c0 12.301-2.272 24.269-6.757 35.605l20.646 20.646c3.514-6.904 6.377-14.131 8.529-21.537.996-3.427 3.951-5.951 7.529-6.43l34.156-4.572c1.546-.207 2.712-1.54 2.712-3.1v-41.224c0-1.56-1.167-2.893-2.713-3.1l-34.155-4.572c-3.579-.479-6.534-3.003-7.53-6.431-2.523-8.683-6.024-17.122-10.406-25.083-1.725-3.132-1.422-7.01.77-9.881l20.932-27.401c.947-1.24.829-3.007-.274-4.11l-29.149-29.149c-1.104-1.104-2.871-1.221-4.11-.273l-27.401 20.931c-2.871 2.193-6.748 2.497-9.881.771-7.961-4.382-16.4-7.883-25.083-10.406-3.428-.996-5.952-3.952-6.431-7.53l-4.572-34.156c-.207-1.546-1.54-2.713-3.1-2.713h-41.224c-1.56 0-2.893 1.167-3.1 2.713l-4.572 34.155c-.479 3.578-3.003 6.534-6.43 7.53-8.683 2.523-17.122 6.024-25.083 10.406-3.133 1.725-7.011 1.422-9.881-.771l-27.401-20.931c-1.24-.947-3.008-.828-4.11.274-1.171 1.172-3.071 1.172-4.242 0-1.172-1.171-1.172-3.071 0-4.242 3.22-3.221 8.377-3.564 11.995-.799l27.401 20.931c.981.75 2.295.862 3.345.282 8.348-4.595 17.197-8.266 26.303-10.912 1.146-.333 1.994-1.34 2.157-2.564l4.572-34.156c.605-4.514 4.494-7.917 9.047-7.917h41.224c4.553 0 8.442 3.403 9.047 7.917l4.572 34.156c.164 1.224 1.011 2.23 2.158 2.564 9.105 2.646 17.955 6.317 26.302 10.912 1.05.577 2.363.466 3.345-.283l27.401-20.931c3.619-2.764 8.775-2.421 11.995.799l29.149 29.149c3.22 3.22 3.563 8.376.799 11.995l-20.932 27.401c-.75.981-.86 2.295-.282 3.345 4.595 8.348 8.266 17.197 10.912 26.303.333 1.146 1.339 1.994 2.564 2.157l34.156 4.572c4.513.605 7.917 4.494 7.917 9.047v41.224c0 4.554-3.403 8.443-7.917 9.047l-34.156 4.572c-1.224.164-2.23 1.01-2.563 2.157-2.647 9.107-6.318 17.957-10.913 26.303-.455.826-1.272 1.391-2.206 1.523-.933.134-1.876-.182-2.543-.849l-24.927-24.926c-.861-.861-1.116-2.159-.645-3.282 4.681-11.149 7.054-22.978 7.054-35.157 0-50.123-40.778-90.9-90.9-90.9-50.123 0-90.9 40.778-90.9 90.9s40.777 90.9 90.9 90.9c12.11 0 23.882-2.351 34.988-6.987 1.123-.468 2.417-.213 3.277.647l24.942 24.942c.667.667.982 1.61.848 2.545-.133.935-.699 1.752-1.527 2.207-8.305 4.556-17.1 8.198-26.14 10.825-1.146.333-1.994 1.34-2.157 2.564l-4.572 34.156c-.604 4.516-4.493 7.92-9.047 7.92z" fill="#166176"/></g></g><g fill="#166176"><path d="m435.096 354.402h-19.285c-1.657 0-3-1.343-3-3s1.343-3 3-3h19.285c1.657 0 3 1.343 3 3s-1.343 3-3 3z"/><path d="m131.405 95.193h-47.348c-1.657 0-3-1.343-3-3s1.343-3 3-3h47.348c1.657 0 3 1.343 3 3s-1.343 3-3 3z"/><path d="m160.979 95.193h-10.795c-1.657 0-3-1.343-3-3s1.343-3 3-3h10.795c1.657 0 3 1.343 3 3s-1.343 3-3 3z"/></g></g></svg>