<svg id="Capa_1" enable-background="new 0 0 512 512" height="512" viewBox="0 0 512 512" width="512" xmlns="http://www.w3.org/2000/svg"><g><path d="m256 97.124c10.992 0 19.935-8.943 19.935-19.935v-57.254c0-10.993-8.943-19.935-19.935-19.935s-19.935 8.942-19.935 19.935v57.254c0 10.992 8.943 19.935 19.935 19.935zm-4.935-77.189c0-2.721 2.214-4.935 4.935-4.935s4.935 2.214 4.935 4.935v57.254c0 2.721-2.214 4.935-4.935 4.935s-4.935-2.214-4.935-4.935z"/><path d="m464.197 202.229h-57.254c-10.992 0-19.935 8.942-19.935 19.935s8.942 19.935 19.935 19.935h57.254c10.992 0 19.935-8.942 19.935-19.935s-8.943-19.935-19.935-19.935zm0 24.869h-57.254c-2.721 0-4.935-2.214-4.935-4.935s2.214-4.935 4.935-4.935h57.254c2.721 0 4.935 2.214 4.935 4.935s-2.214 4.935-4.935 4.935z"/><path d="m105.057 202.229h-57.254c-10.992 0-19.935 8.942-19.935 19.935s8.942 19.935 19.935 19.935h57.254c10.992 0 19.935-8.942 19.935-19.935s-8.943-19.935-19.935-19.935zm0 24.869h-57.254c-2.721 0-4.935-2.214-4.935-4.935s2.214-4.935 4.935-4.935h57.254c2.721 0 4.935 2.214 4.935 4.935s-2.215 4.935-4.935 4.935z"/><path d="m139.392 133.747s.001 0 0 0c7.791 7.79 20.4 7.793 28.191 0 7.792-7.791 7.793-20.4.001-28.192l-40.485-40.485c-7.79-7.791-20.41-7.782-28.19 0-7.792 7.792-7.792 20.401-.001 28.192zm-29.877-58.071c1.928-1.928 5.051-1.928 6.978 0l40.485 40.485c1.928 1.928 1.929 5.049-.001 6.979-1.927 1.928-5.049 1.929-6.979 0h.001l-40.485-40.485c-1.93-1.93-1.929-5.05.001-6.979z"/><path d="m358.512 139.585c5.325 0 10.332-2.074 14.097-5.839l40.483-40.484c7.791-7.79 7.793-20.4.002-28.191-7.788-7.791-20.402-7.793-28.193-.001l-40.483 40.484c-7.793 7.792-7.792 20.401 0 28.193 3.764 3.765 8.77 5.838 14.094 5.838zm-3.489-23.424 40.484-40.485c1.926-1.926 5.049-1.93 6.979.001 1.928 1.928 1.929 5.049-.001 6.978l-40.484 40.485c-1.927 1.928-5.05 1.929-6.978 0h-.001c-1.928-1.929-1.929-5.05.001-6.979z"/><path d="m254.305 123.189c-35.164.486-67.021 15.569-89.703 42.471-2.671 3.167-2.268 7.898.898 10.568 3.167 2.67 7.898 2.267 10.568-.899 19.837-23.526 47.695-36.716 78.445-37.141 61.301-.888 106.66 49.469 106.66 105.419 0 17.874-4.536 35.02-13.482 50.961-17.516 31.21-26.522 51.966-32.861 67.433-1.766-.382-3.601-.563-5.245-.563-5.012 0-9.777-.002-14.328-.006v-98.242c0-1.312-.37-2.598-.925-3.607l-26.582-49.35c-2.373-4.404-6.875-7.14-11.75-7.14-4.867 0-9.373 2.729-11.75 7.14h.001c-10.97 20.365-23.656 43.916-26.583 49.35-.561 1.021-.925 2.303-.925 3.607v98.119c-9.845.042-6.342.129-14.328.129-1.798 0-3.55.198-5.24.564-6.911-16.947-15.382-36.69-32.57-66.909-9.144-16.078-13.78-33.366-13.78-51.384-.001-13.891 2.771-27.542 8.237-40.572 1.603-3.819-.195-8.215-4.015-9.817-3.816-1.6-8.215.194-9.817 4.015-6.242 14.878-9.406 30.481-9.405 46.375 0 20.65 5.296 40.433 15.741 58.799 17.37 30.538 25.616 50.132 32.507 67.094-3.964 4.386-6.382 10.195-6.382 16.559 0 6.69 2.671 12.768 7.003 17.224-4.332 4.456-7.003 10.534-7.003 17.224 0 9.402 5.276 17.593 13.021 21.773v2.623c0 36.94 30.053 66.993 66.993 66.993 10.448 0 20.461-2.341 29.759-6.958 3.71-1.842 5.225-6.343 3.383-10.053-1.843-3.709-6.344-5.224-10.053-3.382-7.208 3.579-14.976 5.393-23.089 5.393-28.561 0-51.816-23.146-51.992-51.666h103.984c-.058 9.014-2.449 17.865-6.926 25.621-2.07 3.587-.841 8.174 2.747 10.245 3.585 2.069 8.174.84 10.245-2.747 5.844-10.126 8.934-21.691 8.935-33.446v-4.851c5.84-4.526 9.609-11.602 9.609-19.546 0-6.69-2.671-12.768-7.003-17.224 4.332-4.456 7.003-10.534 7.003-17.224 0-6.363-2.418-12.172-6.381-16.558 6.234-15.296 15.037-35.964 32.844-67.695 10.221-18.21 15.402-37.826 15.402-58.302.002-63.915-51.873-121.385-121.867-120.417zm-11.417 121.204h26.224l6.086 11.299h-38.396zm5.612 26.298v90.651c-6.342-.017-11.888-.032-16.757-.04v-90.61h16.757zm15 90.69v-90.69h16.757v90.724c-6.004-.009-11.568-.021-16.757-.034zm-2.468-131.988h-10.063l5.032-9.341zm-58.617 200.941c-5.185 0-9.724-4.222-9.724-9.724 0-5.362 4.362-9.724 9.724-9.724 4.143 0 7.5-3.358 7.5-7.5s-3.357-7.5-7.5-7.5c-5.361 0-9.724-4.362-9.724-9.724 0-4.215 2.701-7.802 6.459-9.148 3.522-.818 6.258-.576 110.435-.576 5.249 0 9.724 4.276 9.724 9.724 0 5.362-4.362 9.724-9.724 9.724-4.143 0-7.5 3.358-7.5 7.5s3.357 7.5 7.5 7.5c5.361 0 9.724 4.362 9.724 9.724 0 5.486-4.529 9.724-9.724 9.724z"/></g></svg>