<svg id="Capa_1" enable-background="new 0 0 512.052 512.052" height="512" viewBox="0 0 512.052 512.052" width="512" xmlns="http://www.w3.org/2000/svg"><g><g id="Page-1_4_"><g id="_x30_05---Location" transform="translate(0 -1)"><path id="Shape_14_" d="m85.36 513.052h341.333c23.552-.028 42.638-19.114 42.667-42.667v-136.533c-.028-23.552-19.114-42.638-42.667-42.667h-66.5c26.334-37.257 48.06-82.577 49.365-131.772 1.541-81.493-60.066-150.366-141.227-157.883-42.81-3.578-85.142 11.072-116.582 40.346-31.393 29.108-49.262 69.965-49.323 112.777 0 51.046 22.238 98.082 49.417 136.533h-66.483c-23.552.028-42.638 19.114-42.667 42.667v136.533c.028 23.552 19.114 42.638 42.667 42.666zm-25.6-42.666v-104.226l231.825 129.826h-206.225c-14.139 0-25.6-11.462-25.6-25.6zm392.533 0c0 14.138-11.462 25.6-25.6 25.6h-23.373l-94.191-52.651 141.815-117.308c.858 2.521 1.313 5.162 1.348 7.825v136.534zm-11.682-157.961-151.962 125.705c-2.168 1.794-3.313 4.542-3.058 7.345.254 2.803 1.874 5.3 4.33 6.675l78.413 43.836h-41.814l-266.76-149.385v-12.749c.013-3.181.627-6.331 1.809-9.284l192.751 107.699c3.072 1.727 6.889 1.388 9.609-.853l148.77-123.162h13.995c4.946.005 9.784 1.455 13.917 4.173zm-277.274-258.031c25.127-23.413 58.225-36.383 92.57-36.275 3.675 0 7.373.142 11.093.427 72.137 6.708 126.879 67.938 125.5 140.373-2.705 101.726-101.094 187.52-131.183 211.388-3.081 2.463-7.457 2.463-10.539 0-30.797-24.388-131.285-112.128-131.285-215.654.054-38.059 15.937-74.38 43.844-100.259zm1.263 253.858c22.319 27.879 47.668 53.19 75.58 75.469 9.293 7.4 22.471 7.382 31.744-.043 27.875-22.275 53.194-47.572 75.494-75.426h38.511l-128.367 106.266-184.405-103.031c3.728-2.093 7.927-3.206 12.203-3.234h79.24z"/><path id="Shape_13_" d="m332.826 154.652c0-42.415-34.385-76.8-76.8-76.8s-76.8 34.385-76.8 76.8 34.385 76.8 76.8 76.8c42.394-.051 76.749-34.406 76.8-76.8zm-136.533 0c0-32.99 26.744-59.733 59.733-59.733s59.733 26.744 59.733 59.733-26.744 59.733-59.733 59.733c-32.974-.037-59.696-26.758-59.733-59.733z"/></g></g></g></svg>