<svg id="Capa_1" enable-background="new 0 0 512.044 512.044" height="512" viewBox="0 0 512.044 512.044" width="512" xmlns="http://www.w3.org/2000/svg"><g><g id="Page-1_16_"><g id="_x30_17---Call" transform="translate(0 -1)"><path id="Shape_80_" d="m431.408 70.582c-98.701-92.913-252.728-92.757-351.24.356s-107.34 246.887-20.131 350.662l-48.102 64.137c-3.879 5.172-4.503 12.091-1.612 17.872 2.891 5.782 8.801 9.434 15.265 9.434h230.4c104.969.005 199.304-64.07 237.991-161.65 38.687-97.579 13.885-208.888-62.571-280.811zm-5.666 355.268c-44.894 45.19-106.055 70.456-169.754 70.127h-230.4l48.102-64.128c4.763-6.353 4.491-15.159-.657-21.205-82.526-98.97-71.569-245.583 24.752-331.186s243.206-79.271 331.802 14.305 86.893 240.588-3.845 332.087z"/><path id="Shape_79_" d="m368.168 281.287c-11.548-11.047-29.745-11.047-41.293 0l-14.618 14.609-15.966 15.966c-1.825 1.862-4.749 2.077-6.827.503-16.836-12.584-32.862-26.216-47.983-40.815-14.611-15.107-28.247-31.128-40.823-47.966-1.604-2.068-1.39-5.012.495-6.827l30.575-30.575c5.48-5.475 8.559-12.904 8.559-20.651s-3.079-15.175-8.559-20.651l-58.445-58.505c-11.549-11.053-29.753-11.053-41.301 0l-14.618 14.618-24.363 24.38c-21.205 21.205-21.734 52.386-1.596 92.681 16.572 33.143 46.626 71.595 89.301 114.27s81.126 72.721 114.27 89.301c16.081 8.85 33.981 13.887 52.318 14.72 15.127.351 29.729-5.552 40.363-16.316l24.354-24.354 14.643-14.626c5.48-5.475 8.559-12.904 8.559-20.651 0-7.746-3.079-15.175-8.559-20.651zm-215.535-186.376c3.222-.008 6.313 1.273 8.585 3.558l58.462 58.47c2.278 2.275 3.558 5.361 3.558 8.58s-1.28 6.306-3.558 8.58l-8.585 8.585-75.631-75.631 8.585-8.585c2.269-2.286 5.361-3.568 8.584-3.557zm222.959 313.053c-15.428 15.428-39.987 14.891-72.977-1.604-31.07-15.531-69.052-45.303-109.841-86.101s-70.571-78.771-86.101-109.841c-16.495-32.99-17.067-57.54-1.604-72.977l18.33-18.321 75.631 75.631-9.924 9.916c-7.84 7.878-8.712 20.315-2.048 29.21 13.06 17.457 27.214 34.068 42.377 49.732 15.664 15.155 32.272 29.303 49.724 42.359 8.885 6.68 21.33 5.811 29.201-2.039l9.924-9.933 75.631 75.631zm38.971-38.98-8.533 8.533-75.674-75.588 8.585-8.585c4.803-4.58 12.357-4.58 17.161 0l58.462 58.462c2.278 2.276 3.558 5.364 3.558 8.585s-1.28 6.309-3.558 8.585v.008z"/><path id="Shape_78_" d="m324.255 197.311c2.263 0 4.433-.9 6.033-2.5l42.667-42.667c3.234-3.348 3.188-8.671-.104-11.962-3.292-3.292-8.614-3.338-11.962-.104l-42.667 42.667c-2.44 2.44-3.169 6.11-1.849 9.298s4.431 5.267 7.882 5.268z"/><path id="Shape_77_" d="m298.655 171.711c4.713 0 8.533-3.82 8.533-8.533v-42.667c0-4.713-3.82-8.533-8.533-8.533s-8.533 3.821-8.533 8.533v42.667c0 4.712 3.82 8.533 8.533 8.533z"/><path id="Shape_76_" d="m341.322 214.377c0 4.713 3.821 8.533 8.533 8.533h42.667c4.713 0 8.533-3.821 8.533-8.533s-3.82-8.533-8.533-8.533h-42.667c-4.713 0-8.533 3.82-8.533 8.533z"/></g></g></g></svg>